Coordinates
version=1
nRows=21
nColumns=27
inDegrees=yes

Units are S.I. units (second, meters, Newtons, ...)
If the header above contains a line with 'inDegrees', this indicates whether rotational values are in degrees (yes) or radians (no).

endheader
time	pelvis_rotation	pelvis_tilt	pelvis_list	pelvis_tx	pelvis_ty	pelvis_tz	hip_flexion_r	hip_adduction_r	hip_rotation_r	knee_angle_r	knee_rotation_r	knee_adduction_r	knee_angle_r_beta	ankle_angle_r	subtalar_angle_r	mtp_angle_r	hip_flexion_l	hip_adduction_l	hip_rotation_l	knee_angle_l	knee_rotation_l	knee_adduction_l	knee_angle_l_beta	ankle_angle_l	subtalar_angle_l	mtp_angle_l
      5.24500000	     12.12872320	    -28.27796162	      5.81299242	     -0.03944165	      0.66108478	     -1.18580486	     87.86219415	    -44.83171759	      0.19522728	     77.60169934	      0.00000000	      9.43321779	      1.35440516	     10.58502500	      0.00000000	      0.00000000	     88.25837374	    -17.35181470	      5.28669880	     71.26611233	      0.00000000	     -9.83999003	      1.24382831	      8.05324169	      0.00000000	      0.00000000
      5.25000000	     12.18644641	    -28.24345524	      5.72612451	     -0.03893351	      0.66144554	     -1.18578007	     87.57333153	    -44.90537625	     -0.08229725	     77.53036884	      0.00000000	      9.44066388	      1.35316021	     10.61307738	      0.00000000	      0.00000000	     88.20353298	    -17.31506896	      5.38746455	     71.22549812	      0.00000000	     -9.84015094	      1.24311945	      8.07125512	      0.00000000	      0.00000000
      5.25500000	     11.53105159	    -28.27055136	      5.53831764	     -0.03896767	      0.66176558	     -1.18539175	     87.64415836	    -44.05561905	      0.30976220	     77.43664347	      0.00000000	      9.03063785	      1.35152439	     10.48033279	      0.00000000	      0.00000000	     88.08695776	    -17.98417387	      5.20823177	     71.19755740	      0.00000000	     -9.70466004	      1.24263180	      8.01948744	      0.00000000	      0.00000000
      5.26000000	     12.24142694	    -28.18948103	      5.61766985	     -0.03806710	      0.66210383	     -1.18568083	     87.15320145	    -44.96987886	     -0.44632300	     77.42032025	      0.00000000	      9.44650167	      1.35123950	     10.64858185	      0.00000000	      0.00000000	     88.08186592	    -17.30762481	      5.48081072	     71.14550965	      0.00000000	     -9.84120835	      1.24172339	      8.07957133	      0.00000000	      0.00000000
      5.26500000	     11.81199728	    -28.15666318	      5.41441908	     -0.03801022	      0.66251612	     -1.18539788	     87.00018301	    -44.38451989	     -0.31728390	     77.28908849	      0.00000000	      9.06312955	      1.34894907	     10.55435503	      0.00000000	      0.00000000	     87.94605375	    -17.72738924	      5.46449717	     71.08570659	      0.00000000	     -9.70557078	      1.24067963	      8.07617950	      0.00000000	      0.00000000
      5.27000000	     12.28242659	    -28.03330459	      5.61590641	     -0.03719851	      0.66278996	     -1.18563184	     86.76921919	    -45.04472600	     -0.63883360	     77.32490839	      0.00000000	      9.45213744	      1.34957425	     10.66397563	      0.00000000	      0.00000000	     87.78286615	    -17.29587981	      5.43110806	     71.03671140	      0.00000000	     -9.84200677	      1.23982450	      8.12562155	      0.00000000	      0.00000000
      5.27500000	     11.83133709	    -28.07142454	      5.41549887	     -0.03722685	      0.66309441	     -1.18529849	     86.74789962	    -44.43084878	     -0.45558362	     77.22482518	      0.00000000	      9.06962645	      1.34782746	     10.56481214	      0.00000000	      0.00000000	     87.73521553	    -17.76106657	      5.39764689	     70.98304677	      0.00000000	     -9.70756668	      1.23888788	      8.05167587	      0.00000000	      0.00000000
      5.28000000	     12.28957290	    -27.97884052	      5.67739367	     -0.03649544	      0.66331973	     -1.18558043	     86.63954128	    -45.07057032	     -0.64076017	     77.26476900	      0.00000000	      9.45824813	      1.34852461	     10.68272253	      0.00000000	      0.00000000	     87.57964655	    -17.34032838	      5.28874692	     70.92714125	      0.00000000	     -9.84309646	      1.23791214	      8.13672628	      0.00000000	      0.00000000
      5.28500000	     12.20897088	    -27.93362667	      5.72406707	     -0.03619819	      0.66351447	     -1.18554681	     86.64049845	    -44.99225737	     -0.51813393	     77.24881216	      0.00000000	      9.45718746	      1.34824612	     10.64760696	      0.00000000	      0.00000000	     87.44224701	    -17.44060393	      5.15570648	     70.89193266	      0.00000000	     -9.84399016	      1.23729764	      8.12592446	      0.00000000	      0.00000000
      5.29000000	     12.24387301	    -27.90610031	      5.66337297	     -0.03580648	      0.66384171	     -1.18548284	     86.42043993	    -45.03802268	     -0.73173611	     77.19235517	      0.00000000	      9.46008292	      1.34726076	     10.67948694	      0.00000000	      0.00000000	     87.39088599	    -17.43465880	      5.21014290	     70.85037653	      0.00000000	     -9.84429686	      1.23657235	      8.12276002	      0.00000000	      0.00000000
      5.29500000	     12.19181408	    -27.90097414	      5.60257139	     -0.03547795	      0.66415726	     -1.18542105	     86.27854305	    -44.97698559	     -0.84035048	     77.13580879	      0.00000000	      9.46337146	      1.34627383	     10.69975971	      0.00000000	      0.00000000	     87.34234758	    -17.51705162	      5.20471289	     70.81354303	      0.00000000	     -9.84495401	      1.23592948	      8.10423632	      0.00000000	      0.00000000
      5.30000000	     12.16410352	    -27.83563895	      5.57272350	     -0.03508520	      0.66446445	     -1.18537959	     86.09457614	    -44.95633105	     -0.93125561	     77.08370551	      0.00000000	      9.46806767	      1.34536446	     10.73454793	      0.00000000	      0.00000000	     87.21439489	    -17.56826918	      5.17895222	     70.76651600	      0.00000000	     -9.84582751	      1.23510870	      8.09594683	      0.00000000	      0.00000000
      5.30500000	     11.98556550	    -27.67010640	      5.44158366	     -0.03486256	      0.66495072	     -1.18521607	     85.72781940	    -44.71038888	     -1.00249657	     76.93924207	      0.00000000	      9.10735283	      1.34284310	     10.63103737	      0.00000000	      0.00000000	     86.94389755	    -17.71037133	      5.23882018	     70.65497970	      0.00000000	     -9.71115336	      1.23316203	      8.12263551	      0.00000000	      0.00000000
      5.31000000	     12.16311983	    -27.76605296	      5.42221204	     -0.03436855	      0.66505030	     -1.18532130	     85.66346893	    -44.98087426	     -1.32202478	     76.96107893	      0.00000000	      9.47217149	      1.34322422	     10.70321761	      0.00000000	      0.00000000	     87.10161590	    -17.61498426	      5.28250991	     70.70330925	      0.00000000	     -9.84614388	      1.23400554	      8.12265050	      0.00000000	      0.00000000
      5.31500000	     11.60886692	    -27.77877308	      5.30320475	     -0.03446753	      0.66541216	     -1.18497926	     85.76999766	    -44.25566193	     -0.91046040	     76.87122992	      0.00000000	      9.08790525	      1.34165606	     10.61100497	      0.00000000	      0.00000000	     86.94973101	    -18.15807160	      5.09491122	     70.63426633	      0.00000000	     -9.71527198	      1.23280051	      8.05024203	      0.00000000	      0.00000000
      5.32000000	     12.20915895	    -27.60052493	      5.64208465	     -0.03363432	      0.66558378	     -1.18535841	     85.59294023	    -45.10230657	     -1.14238488	     76.92564798	      0.00000000	      9.48750942	      1.34260584	     10.70082659	      0.00000000	      0.00000000	     86.70057334	    -17.56724031	      5.00746054	     70.55957730	      0.00000000	     -9.84706363	      1.23149694	      8.16153328	      0.00000000	      0.00000000
      5.32500000	     11.89409108	    -27.53950732	      5.37663219	     -0.03354380	      0.66599127	     -1.18511328	     85.27019810	    -44.66600615	     -1.25978774	     76.77466296	      0.00000000	      9.12849850	      1.33997065	     10.58942449	      0.00000000	      0.00000000	     86.60286681	    -17.86732604	      5.14151874	     70.51463256	      0.00000000	     -9.71482436	      1.23071251	      8.13091377	      0.00000000	      0.00000000
      5.33000000	     12.07861216	    -27.63105592	      5.44073750	     -0.03298414	      0.66613633	     -1.18526174	     85.29307204	    -44.97012775	     -1.47128247	     76.81399688	      0.00000000	      9.48717284	      1.34065716	     10.66889021	      0.00000000	      0.00000000	     86.68733501	    -17.74315699	      5.10435129	     70.52351504	      0.00000000	     -9.84804179	      1.23086754	      8.15287155	      0.00000000	      0.00000000
      5.33500000	     12.10135597	    -27.55102730	      5.42425308	     -0.03257207	      0.66646544	     -1.18527538	     85.07171816	    -45.01819991	     -1.60928726	     76.75316693	      0.00000000	      9.49583940	      1.33959547	     10.69619686	      0.00000000	      0.00000000	     86.54954331	    -17.72035339	      5.11848466	     70.47448063	      0.00000000	     -9.84812246	      1.23001173	      8.16782336	      0.00000000	      0.00000000
      5.34000000	     12.05753388	    -27.49113978	      5.41871465	     -0.03222936	      0.66684756	     -1.18526300	     84.92096788	    -44.98950886	     -1.66833401	     76.68664337	      0.00000000	      9.50292289	      1.33843442	     10.70762985	      0.00000000	      0.00000000	     86.38726226	    -17.75266484	      5.08465376	     70.38903458	      0.00000000	     -9.84856390	      1.22852041	      8.20554120	      0.00000000	      0.00000000
      5.34500000	     11.36160165	    -27.47975655	      5.52294819	     -0.03232358	      0.66706831	     -1.18500408	     85.40948283	    -44.16012889	     -0.72551103	     76.67433000	      0.00000000	      9.11989632	      1.33821951	     10.58135066	      0.00000000	      0.00000000	     86.07169269	    -18.43560145	      4.51829194	     70.32838693	      0.00000000	     -9.71979418	      1.22746191	      8.15651721	      0.00000000	      0.00000000
